# xmcd
#
# Track frame offsets: 
#        150
#        11560
#        25869
#        40165
#        50905
#        67395
#        78642
#        89140
#        101507
#        115830
#        128035
#        140710
#
# Disc length: 2004 seconds
#
# Revision: 0
# Processed by: cddbd v1.5.1PL2 Copyright (c) Steve Scherf et al.
# Submitted via: ExactAudioCopy v0.90b3
#
DISCID=b007d20c
DTITLE=Dean Martin - Sings Country Favorites - Disc 1
DYEAR=1999
DGENRE=Country
TTITLE0=Send Me The Pillow You Dream On
TTITLE1=Green, Green Grass Of Home
TTITLE2=Crying Time
TTITLE3=(Remember Me) I'm The One Who Loves You
TTITLE4=Detroit City
TTITLE5=Born To Lose
TTITLE6=Lay Some Happiness On Me
TTITLE7=Little Ole Wine Drinker, Me
TTITLE8=My Heart Cries For You
TTITLE9=In The Misty Moonlight
TTITLE10=You've Still Got A Place In My Heart
TTITLE11=The First Thing Ev'ry Morning (And The Last Thing Ev'ry Night
EXTD=
EXTT0=
EXTT1=
EXTT2=
EXTT3=
EXTT4=
EXTT5=
EXTT6=
EXTT7=
EXTT8=
EXTT9=
EXTT10=
EXTT11=
PLAYORDER=
